<mxfile host="app.diagrams.net" modified="2023-04-14T14:08:45.470Z" agent="Mozilla/5.0 (Windows NT 10.0; Win64; x64) AppleWebKit/537.36 (KHTML, like Gecko) Chrome/111.0.0.0 Safari/537.36" etag="kbrJM1J7c4oitv4mOTzo" version="21.1.2" type="device">
  <diagram name="Page-1" id="AdSP3V9QLK1olVL9tDRn">
    <mxGraphModel dx="1434" dy="796" grid="1" gridSize="10" guides="1" tooltips="1" connect="1" arrows="1" fold="1" page="0" pageScale="1" pageWidth="827" pageHeight="1169" math="0" shadow="0">
      <root>
        <mxCell id="0" />
        <mxCell id="1" parent="0" />
        <mxCell id="rY7msoaw76RCDSD5CqZC-1" value="Benternet" style="ellipse;whiteSpace=wrap;html=1;fillColor=#dae8fc;strokeColor=#6c8ebf;" vertex="1" parent="1">
          <mxGeometry x="320" y="120" width="80" height="80" as="geometry" />
        </mxCell>
        <mxCell id="rY7msoaw76RCDSD5CqZC-2" value="The Oasis&lt;br&gt;Client" style="ellipse;whiteSpace=wrap;html=1;fillColor=#dae8fc;strokeColor=#6c8ebf;" vertex="1" parent="1">
          <mxGeometry x="480" y="240" width="80" height="80" as="geometry" />
        </mxCell>
        <mxCell id="rY7msoaw76RCDSD5CqZC-3" value="The Oasis&lt;br&gt;Service" style="ellipse;whiteSpace=wrap;html=1;fillColor=#dae8fc;strokeColor=#6c8ebf;" vertex="1" parent="1">
          <mxGeometry x="160" y="240" width="80" height="80" as="geometry" />
        </mxCell>
        <mxCell id="rY7msoaw76RCDSD5CqZC-4" value="" style="endArrow=none;html=1;rounded=0;exitX=1;exitY=0;exitDx=0;exitDy=0;entryX=0;entryY=1;entryDx=0;entryDy=0;" edge="1" parent="1" source="rY7msoaw76RCDSD5CqZC-3" target="rY7msoaw76RCDSD5CqZC-1">
          <mxGeometry width="50" height="50" relative="1" as="geometry">
            <mxPoint x="390" y="430" as="sourcePoint" />
            <mxPoint x="440" y="380" as="targetPoint" />
          </mxGeometry>
        </mxCell>
        <mxCell id="rY7msoaw76RCDSD5CqZC-6" value="ZMQ" style="edgeLabel;html=1;align=center;verticalAlign=middle;resizable=0;points=[];" vertex="1" connectable="0" parent="rY7msoaw76RCDSD5CqZC-4">
          <mxGeometry x="-0.4416" y="-4" relative="1" as="geometry">
            <mxPoint x="11" y="-27" as="offset" />
          </mxGeometry>
        </mxCell>
        <mxCell id="rY7msoaw76RCDSD5CqZC-5" value="" style="endArrow=none;html=1;rounded=0;entryX=1;entryY=1;entryDx=0;entryDy=0;exitX=0;exitY=0;exitDx=0;exitDy=0;" edge="1" parent="1" source="rY7msoaw76RCDSD5CqZC-2" target="rY7msoaw76RCDSD5CqZC-1">
          <mxGeometry width="50" height="50" relative="1" as="geometry">
            <mxPoint x="390" y="430" as="sourcePoint" />
            <mxPoint x="440" y="380" as="targetPoint" />
          </mxGeometry>
        </mxCell>
        <mxCell id="rY7msoaw76RCDSD5CqZC-7" value="ZMQ" style="edgeLabel;html=1;align=center;verticalAlign=middle;resizable=0;points=[];" vertex="1" connectable="0" parent="rY7msoaw76RCDSD5CqZC-5">
          <mxGeometry x="-0.3931" y="1" relative="1" as="geometry">
            <mxPoint x="-10" y="-23" as="offset" />
          </mxGeometry>
        </mxCell>
      </root>
    </mxGraphModel>
  </diagram>
</mxfile>
